<?xml version="1.0"?>
<svg xmlns="http://www.w3.org/2000/svg" viewBox="0 0 64 64" width="512" height="512"><g id="Calculator"><polygon points="54 45 54 57 48 57 48 51 48 45 54 45" style="fill:#bddbff"/><rect x="38" y="51" width="5" height="6" style="fill:#bddbff"/><rect x="43" y="51" width="5" height="6" style="fill:#bddbff"/><rect x="43" y="45" width="5" height="6" style="fill:#bddbff"/><rect x="38" y="45" width="5" height="6" style="fill:#bddbff"/><rect x="38" y="35" width="16" height="6" style="fill:#bddbff"/><path d="M45.85,7.49l5.66,5.66-4.26,5.04a18.917,18.917,0,0,1,2.18,5.26L56,24v7H41V28A10,10,0,1,0,31,38h3V53H27l-.55-6.57a18.917,18.917,0,0,1-5.26-2.18l-5.04,4.26-5.66-5.66,4.26-5.04a18.917,18.917,0,0,1-2.18-5.26L6,32V24l6.57-.55a18.917,18.917,0,0,1,2.18-5.26l-4.26-5.04,5.66-5.66,5.04,4.26a18.917,18.917,0,0,1,5.26-2.18L27,3h8l.55,6.57a18.917,18.917,0,0,1,5.26,2.18Z" style="fill:#bddbff"/><path d="M27.448,46.346a1,1,0,0,0-.757-.888A17.877,17.877,0,0,1,21.7,43.391a1,1,0,0,0-1.163.091l-4.333,3.666-4.355-4.356,3.666-4.331a1,1,0,0,0,.091-1.164,17.9,17.9,0,0,1-2.068-4.989,1,1,0,0,0-.888-.757L7,31.08V24.92l5.653-.471a1,1,0,0,0,.888-.757A17.9,17.9,0,0,1,15.609,18.7a1,1,0,0,0-.091-1.164l-3.666-4.331,4.355-4.356,4.333,3.666a1,1,0,0,0,1.163.091,17.877,17.877,0,0,1,4.988-2.067,1,1,0,0,0,.757-.888L27.92,4h6.16l.472,5.654a1,1,0,0,0,.757.888A17.877,17.877,0,0,1,40.3,12.609a1,1,0,0,0,1.163-.091l4.333-3.666,4.355,4.356-3.666,4.331a1,1,0,0,0-.091,1.164,17.9,17.9,0,0,1,2.068,4.989,1,1,0,0,0,.888.757L55,24.92V28h2V24a1,1,0,0,0-.917-1l-5.868-.488a19.837,19.837,0,0,0-1.75-4.223l3.805-4.5a1,1,0,0,0-.057-1.353L46.557,6.787A1,1,0,0,0,45.2,6.73l-4.5,3.805a19.872,19.872,0,0,0-4.222-1.75L36,2.917A1,1,0,0,0,35,2H27a1,1,0,0,0-1,.917l-.489,5.868a19.872,19.872,0,0,0-4.222,1.75l-4.5-3.8a1,1,0,0,0-1.353.057L9.787,12.444A1,1,0,0,0,9.73,13.8l3.805,4.5a19.837,19.837,0,0,0-1.75,4.223L5.917,23A1,1,0,0,0,5,24v8a1,1,0,0,0,.917,1l5.868.488a19.837,19.837,0,0,0,1.75,4.223l-3.8,4.5a1,1,0,0,0,.057,1.353l5.656,5.657a1,1,0,0,0,1.353.057l4.5-3.8a19.872,19.872,0,0,0,4.222,1.75L26,53.083A1,1,0,0,0,27,54h4V52H27.92Z" style="fill:#3d9ae2"/><path d="M31,19a9.01,9.01,0,0,1,9,9h2A11,11,0,1,0,31,39V37a9,9,0,0,1,0-18Z" style="fill:#3d9ae2"/><path d="M57,30H35a2,2,0,0,0-2,2V60a2,2,0,0,0,2,2H57a2,2,0,0,0,2-2V32A2,2,0,0,0,57,30ZM35,60V32H57V60Z" style="fill:#3d9ae2"/><path d="M54,34H38a1,1,0,0,0-1,1v6a1,1,0,0,0,1,1H54a1,1,0,0,0,1-1V35A1,1,0,0,0,54,34Zm-1,6H39V36H53Z" style="fill:#3d9ae2"/><path d="M54,44H38a1,1,0,0,0-1,1V57a1,1,0,0,0,1,1H54a1,1,0,0,0,1-1V45A1,1,0,0,0,54,44ZM47,56H44V52h3Zm0-6H44V46h3Zm-5-4v4H39V46Zm-3,6h3v4H39Zm14,4H49V46h4Z" style="fill:#3d9ae2"/><rect x="30" y="6" width="2" height="2" style="fill:#3d9ae2"/><rect x="15.15" y="12.151" width="2" height="2" transform="translate(-4.569 15.272) rotate(-45)" style="fill:#3d9ae2"/><rect x="9" y="27" width="2" height="2" style="fill:#3d9ae2"/><rect x="15.15" y="41.849" width="2" height="2" transform="translate(-25.569 23.97) rotate(-45)" style="fill:#3d9ae2"/><rect x="30" y="48" width="2" height="2" style="fill:#3d9ae2"/><rect x="51" y="27" width="2" height="2" style="fill:#3d9ae2"/><rect x="44.85" y="12.151" width="2" height="2" transform="translate(4.13 36.272) rotate(-45)" style="fill:#3d9ae2"/></g></svg>
