<svg height="480pt" viewBox="-36 0 480 480" width="480pt" xmlns="http://www.w3.org/2000/svg"><path d="m392 24v150.398438l-18.71875-3.757813c-2.101562-8.398437-5.445312-16.433594-9.921875-23.839844l15.121094-22.722656-18.480469-18.476563v-57.601562c0-4.417969-3.582031-8-8-8h-288c-4.417969 0-8 3.582031-8 8v181.679688l-10.878906-7.199219-21.121094 21.121093v-219.601562c.027344-8.824219 7.175781-15.972656 16-16h336c8.824219.027344 15.972656 7.175781 16 16zm0 0" fill="#bddbff"/><path d="m373.28125 213.359375c-2.101562 8.398437-5.445312 16.433594-9.921875 23.839844l15.121094 22.722656-18.480469 18.476563v137.601562c0 4.417969-3.582031 8-8 8h-288c-4.417969 0-8-3.582031-8-8v-53.679688l-10.878906 7.199219-21.121094-21.121093v107.601562c.027344 8.824219 7.175781 15.972656 16 16h336c8.824219-.027344 15.972656-7.175781 16-16v-246.398438zm0 0" fill="#bddbff"/><path d="m184 312v-32l-27.839844-5.601562c-.65625-1.9375-1.429687-3.835938-2.320312-5.679688l15.679687-23.597656-22.640625-22.640625-23.597656 15.679687c-1.84375-.890625-3.742188-1.664062-5.679688-2.320312l-5.601562-27.839844h-32l-5.601562 27.839844c-1.9375.65625-3.835938 1.429687-5.679688 2.320312l-12.71875-8.480468-10.878906-7.199219-21.121094 21.121093v3.839844l14.160156 21.277344c-.890625 1.84375-1.664062 3.742188-2.320312 5.679688l-11.839844 2.402343-16 3.199219v32l16 3.199219 11.839844 2.402343c.65625 1.9375 1.429687 3.835938 2.320312 5.679688l-14.160156 21.277344v3.839844l21.121094 21.121093 10.878906-7.199219 12.71875-8.480468c1.84375.890625 3.742188 1.664062 5.679688 2.320312l5.601562 27.839844h32l5.601562-27.839844c1.9375-.65625 3.835938-1.429687 5.679688-2.320312l23.597656 15.679687 22.640625-22.640625-15.679687-23.597656c.890625-1.84375 1.664062-3.742188 2.320312-5.679688zm-88 24c-22.089844 0-40-17.910156-40-40s17.910156-40 40-40 40 17.910156 40 40-17.910156 40-40 40zm0 0" fill="#bddbff"/><path d="m392 209.601562v-35.203124l-18.71875-3.757813c-2.101562-8.398437-5.445312-16.433594-9.921875-23.839844l15.121094-22.722656-18.480469-18.476563-4.078125-4.082031-22.722656 15.121094c-7.40625-4.476563-15.441407-7.820313-23.839844-9.921875l-5.359375-26.71875h-32l-5.359375 26.71875c-8.398437 2.101562-16.433594 5.445312-23.839844 9.921875l-22.722656-15.121094-22.558594 22.558594 15.121094 22.722656c-4.476563 7.40625-7.820313 15.441407-9.921875 23.839844l-26.71875 5.359375v32l26.71875 5.359375c2.101562 8.398437 5.445312 16.433594 9.921875 23.839844l-15.121094 22.722656 3.28125 3.277344 19.277344 19.28125 22.722656-15.121094c7.40625 4.476563 15.441407 7.820313 23.839844 9.921875l5.359375 26.71875h32l5.359375-26.71875c8.398437-2.101562 16.433594-5.445312 23.839844-9.921875l22.722656 15.121094 4.078125-4.082031 18.480469-18.476563-15.121094-22.722656c4.476563-7.40625 7.820313-15.441407 9.921875-23.839844zm-104 46.398438h-.398438c-35.347656-.109375-63.910156-28.855469-63.800781-64.199219.109375-35.347656 28.851563-63.910156 64.199219-63.800781h.398438c35.347656.109375 63.910156 28.855469 63.800781 64.199219-.109375 35.347656-28.851563 63.910156-64.199219 63.800781zm0 0" fill="#bddbff"/><g fill="#3d9ae2"><path d="m368 416v-112h-16v112h-288v-24h-16v24c0 8.835938 7.164062 16 16 16h288c8.835938 0 16-7.164062 16-16zm0 0"/><path d="m368 80v-32c0-8.835938-7.164062-16-16-16h-288c-8.835938 0-16 7.164062-16 16v152h16v-152h288v32zm0 0"/><path d="m384 456c0 4.417969-3.582031 8-8 8h-336c-4.417969 0-8-3.582031-8-8v-72h-16v72c0 13.253906 10.746094 24 24 24h336c13.253906 0 24-10.746094 24-24v-168h-16zm0 0"/><path d="m32 24c0-4.417969 3.582031-8 8-8h336c4.417969 0 8 3.582031 8 8v72h16v-72c0-13.253906-10.746094-24-24-24h-336c-13.253906 0-24 10.746094-24 24v184h16zm0 0"/><path d="m200 440h16v16h-16zm0 0"/><path d="m401.601562 168.160156-21.898437-4.382812c-1.773437-5.75-4.078125-11.320313-6.886719-16.640625l12.382813-18.585938c2.113281-3.171875 1.695312-7.390625-1-10.085937l-22.632813-22.632813c-2.695312-2.691406-6.914062-3.113281-10.085937-1l-18.625 12.367188c-5.3125-2.820313-10.882813-5.128907-16.632813-6.894531l-4.382812-21.90625c-.761719-3.722657-4.039063-6.398438-7.839844-6.398438h-32c-3.800781 0-7.078125 2.675781-7.839844 6.398438l-4.382812 21.898437c-5.75 1.765625-11.320313 4.074219-16.632813 6.894531l-18.59375-12.390625c-3.171875-2.113281-7.390625-1.695312-10.085937 1l-22.632813 22.632813c-2.691406 2.695312-3.113281 6.914062-1 10.085937l12.367188 18.617188c-2.808594 5.320312-5.113281 10.890625-6.886719 16.640625l-21.914062 4.382812c-3.722657.761719-6.398438 4.039063-6.398438 7.839844v32c0 3.800781 2.675781 7.078125 6.398438 7.839844l21.898437 4.382812c1.773437 5.75 4.078125 11.320313 6.886719 16.640625l-12.382813 18.585938c-2.113281 3.171875-1.695312 7.390625 1 10.085937l22.632813 22.632813c2.695312 2.691406 6.914062 3.113281 10.085937 1l18.625-12.367188c5.3125 2.820313 10.882813 5.128907 16.632813 6.894531l4.382812 21.90625c.761719 3.722657 4.039063 6.398438 7.839844 6.398438h32c3.800781 0 7.078125-2.675781 7.839844-6.398438l4.382812-21.898437c5.75-1.765625 11.320313-4.074219 16.632813-6.894531l18.59375 12.390625c3.171875 2.113281 7.390625 1.695312 10.085937-1l22.632813-22.632813c2.691406-2.695312 3.113281-6.914062 1-10.085937l-12.367188-18.617188c2.808594-5.320312 5.113281-10.890625 6.886719-16.640625l21.914062-4.382812c3.722657-.761719 6.398438-4.039063 6.398438-7.839844v-32c0-3.800781-2.675781-7.078125-6.398438-7.839844zm-9.601562 33.28125-20.289062 4.0625c-3.035157.605469-5.449219 2.902344-6.199219 5.902344-1.898438 7.632812-4.925781 14.941406-8.976563 21.683594-1.589844 2.652344-1.511718 5.984375.207032 8.558594l11.464843 17.214843-13.351562 13.351563-17.207031-11.480469c-2.574219-1.714844-5.910157-1.792969-8.558594-.199219-6.742188 4.058594-14.046875 7.085938-21.683594 8.984375-3 .746094-5.300781 3.160157-5.910156 6.191407l-4.046875 20.289062h-18.898438l-4.054687-20.289062c-.605469-3.03125-2.90625-5.441407-5.902344-6.191407-7.636719-1.898437-14.941406-4.925781-21.683594-8.984375-2.648437-1.59375-5.984375-1.515625-8.558594.199219l-17.207031 11.480469-13.351562-13.351563 11.464843-17.214843c1.71875-2.574219 1.796876-5.90625.207032-8.558594-4.050782-6.742188-7.078125-14.050782-8.976563-21.683594-.75-3-3.164062-5.296875-6.199219-5.902344l-20.289062-4.0625v-18.882812l20.289062-4.0625c3.035157-.605469 5.449219-2.902344 6.199219-5.902344 1.898438-7.632812 4.925781-14.941406 8.976563-21.683594 1.589844-2.652344 1.511718-5.984375-.207032-8.558594l-11.464843-17.214843 13.351562-13.351563 17.207031 11.480469c2.574219 1.714844 5.910157 1.792969 8.558594.199219 6.742188-4.058594 14.046875-7.085938 21.683594-8.984375 2.996094-.75 5.296875-3.160157 5.902344-6.191407l4.054687-20.289062h18.898438l4.046875 20.289062c.609375 3.03125 2.910156 5.445313 5.910156 6.191407 7.636719 1.898437 14.941406 4.925781 21.683594 8.984375 2.648437 1.59375 5.984375 1.515625 8.558594-.199219l17.207031-11.480469 13.351562 13.351563-11.464843 17.214843c-1.71875 2.574219-1.796876 5.90625-.207032 8.558594 4.050782 6.742188 7.078125 14.050782 8.976563 21.683594.75 3 3.164062 5.296875 6.199219 5.902344l20.289062 4.0625zm0 0"/><path d="m288 120c-39.765625 0-72 32.234375-72 72s32.234375 72 72 72 72-32.234375 72-72c-.042969-39.746094-32.253906-71.957031-72-72zm0 128c-30.929688 0-56-25.070312-56-56s25.070312-56 56-56 56 25.070312 56 56c-.035156 30.914062-25.085938 55.964844-56 56zm0 0"/><path d="m288 168c4.417969 0 8 3.582031 8 8h16c-.042969-10.132812-6.445312-19.148438-16-22.527344v-9.472656h-16v9.472656c-11.011719 3.878906-17.621094 15.132813-15.644531 26.640625 1.980469 11.507813 11.96875 19.910157 23.644531 19.886719 4.417969 0 8 3.582031 8 8s-3.582031 8-8 8-8-3.582031-8-8h-16c.042969 10.132812 6.445312 19.148438 16 22.527344v9.472656h16v-9.472656c11.011719-3.878906 17.621094-15.132813 15.644531-26.640625-1.980469-11.507813-11.96875-19.910157-23.644531-19.886719-4.417969 0-8-3.582031-8-8s3.582031-8 8-8zm0 0"/><path d="m16.800781 352.566406 22.632813 22.632813c2.695312 2.695312 6.914062 3.113281 10.085937 1l18.3125-12.199219 4.328125 21.601562c.761719 3.722657 4.039063 6.398438 7.839844 6.398438h32c3.800781 0 7.078125-2.675781 7.839844-6.398438l4.328125-21.601562 18.3125 12.199219c3.171875 2.113281 7.390625 1.695312 10.085937-1l22.632813-22.632813c2.699219-2.695312 3.117187-6.921875 1-10.09375l-12.199219-18.3125 21.601562-4.320312c3.722657-.761719 6.398438-4.039063 6.398438-7.839844v-32c0-3.800781-2.675781-7.078125-6.398438-7.839844l-21.601562-4.320312 12.199219-18.3125c2.117187-3.171875 1.699219-7.398438-1-10.09375l-22.632813-22.632813c-2.695312-2.695312-6.914062-3.113281-10.085937-1l-18.3125 12.199219-4.328125-21.601562c-.761719-3.722657-4.039063-6.398438-7.839844-6.398438h-32c-3.800781 0-7.078125 2.675781-7.839844 6.398438l-4.328125 21.601562-18.3125-12.191406c-3.171875-2.113282-7.390625-1.695313-10.085937 1l-22.632813 22.625c-2.699219 2.695312-3.117187 6.921875-1 10.09375l12.199219 18.3125-21.601562 4.320312c-3.722657.761719-6.398438 4.039063-6.398438 7.839844v32c0 3.800781 2.675781 7.078125 6.398438 7.839844l21.601562 4.320312-12.191406 18.3125c-2.117188 3.171875-1.703125 7.398438.992187 10.09375zm-.800781-47.125v-18.882812l21.375-4.277344c2.753906-.550781 5.015625-2.503906 5.960938-5.144531.613281-1.730469 1.308593-3.410157 2.089843-5.046875 1.191407-2.539063.972657-5.515625-.585937-7.851563l-12.039063-18.125 13.351563-13.359375 18.085937 12.046875c2.335938 1.554688 5.3125 1.777344 7.851563.582031 1.636718-.796874 3.316406-1.472656 5.039062-2.085937 2.644532-.945313 4.597656-3.207031 5.152344-5.960937l4.269531-21.335938h18.898438l4.269531 21.375c.554688 2.753906 2.507812 5.015625 5.152344 5.960938 1.722656.617187 3.402344 1.320312 5.039062 2.089843 2.539063 1.191407 5.515625.972657 7.851563-.585937l18.125-12.085938 13.351562 13.359375-12.039062 18.125c-1.554688 2.335938-1.777344 5.3125-.582031 7.851563.777343 1.636718 1.472656 3.316406 2.085937 5.046875.949219 2.640625 3.210937 4.59375 5.960937 5.144531l21.335938 4.277344v18.882812l-21.375 4.277344c-2.753906.550781-5.015625 2.503906-5.960938 5.144531-.613281 1.730469-1.308593 3.410157-2.089843 5.046875-1.191407 2.539063-.972657 5.515625.585937 7.851563l12.078125 18.125-13.351562 13.359375-18.125-12.046875c-2.335938-1.554688-5.3125-1.777344-7.851563-.582031-1.636718.796874-3.316406 1.472656-5.039062 2.085937-2.644532.945313-4.597656 3.207031-5.152344 5.960937l-4.269531 21.335938h-18.898438l-4.269531-21.375c-.554688-2.753906-2.507812-5.015625-5.152344-5.960938-1.722656-.617187-3.402344-1.320312-5.039062-2.089843-2.539063-1.191407-5.515625-.972657-7.851563.585937l-18.125 12.085938-13.3125-13.359375 12.078125-18.125c1.558594-2.335938 1.78125-5.3125.585938-7.851563-.78125-1.636718-1.476563-3.316406-2.089844-5.046875-.945312-2.640625-3.207031-4.59375-5.960938-5.144531zm0 0"/><path d="m96 344c26.507812 0 48-21.492188 48-48s-21.492188-48-48-48-48 21.492188-48 48c.027344 26.5 21.5 47.972656 48 48zm0-80c17.671875 0 32 14.328125 32 32s-14.328125 32-32 32-32-14.328125-32-32 14.328125-32 32-32zm0 0"/></g></svg>