<svg height="480pt" viewBox="-72 0 480 480" width="480pt" xmlns="http://www.w3.org/2000/svg"><path d="m328 64h-112v32h80v344h-256v-344h80v-32h-112v408h320zm0 0" fill="#9bc9ff"/><path d="m120 120.078125c28.410156-21.4375 67.589844-21.4375 96 0v-64.078125c-.027344-8.824219-7.175781-15.972656-16-16h-64c-8.824219.027344-15.972656 7.175781-16 16zm0 0" fill="#9bc9ff"/><path d="m192 24c-.027344-8.824219-7.175781-15.972656-16-16h-16c-8.824219.027344-15.972656 7.175781-16 16v16h48zm0 0" fill="#9bc9ff"/><g fill="#1e81ce"><path d="m264 208h-128c-4.417969 0-8-3.582031-8-8s3.582031-8 8-8h128c4.417969 0 8 3.582031 8 8s-3.582031 8-8 8zm0 0"/><path d="m264 272h-128c-4.417969 0-8-3.582031-8-8s3.582031-8 8-8h128c4.417969 0 8 3.582031 8 8s-3.582031 8-8 8zm0 0"/><path d="m264 336h-128c-4.417969 0-8-3.582031-8-8s3.582031-8 8-8h128c4.417969 0 8 3.582031 8 8s-3.582031 8-8 8zm0 0"/><path d="m264 400h-128c-4.417969 0-8-3.582031-8-8s3.582031-8 8-8h128c4.417969 0 8 3.582031 8 8s-3.582031 8-8 8zm0 0"/><path d="m96 208c-2.121094 0-4.15625-.84375-5.65625-2.34375l-14.625-14.625c-3.03125-3.136719-2.988281-8.128906.097656-11.214844 3.085938-3.085937 8.078125-3.128906 11.214844-.097656l8.96875 8.96875 28.28125-28.28125c3.136719-3.03125 8.128906-2.988281 11.214844.097656 3.085937 3.085938 3.128906 8.078125.097656 11.214844l-33.9375 33.9375c-1.5 1.5-3.535156 2.34375-5.65625 2.34375zm0 0"/><path d="m107.3125 248 11.3125-11.3125c2.078125-2.007812 2.914062-4.984375 2.179688-7.78125-.730469-2.796875-2.914063-4.980469-5.710938-5.710938-2.796875-.734374-5.773438.101563-7.78125 2.179688l-11.3125 11.3125-11.3125-11.3125c-2.007812-2.078125-4.984375-2.914062-7.78125-2.179688-2.796875.730469-4.980469 2.914063-5.710938 5.710938-.734374 2.796875.101563 5.773438 2.179688 7.78125l11.3125 11.3125-11.3125 11.3125c-2.078125 2.007812-2.914062 4.984375-2.179688 7.78125.730469 2.796875 2.914063 4.980469 5.710938 5.710938 2.796875.734374 5.773438-.101563 7.78125-2.179688l11.3125-11.3125 11.3125 11.3125c2.007812 2.078125 4.984375 2.914062 7.78125 2.179688 2.796875-.730469 4.980469-2.914063 5.710938-5.710938.734374-2.796875-.101563-5.773438-2.179688-7.78125zm0 0"/><path d="m96 336c-2.121094 0-4.15625-.84375-5.65625-2.34375l-14.625-14.625c-2.078125-2.007812-2.914062-4.980469-2.179688-7.78125.730469-2.796875 2.914063-4.980469 5.710938-5.710938 2.800781-.734374 5.773438.101563 7.78125 2.179688l8.96875 8.96875 28.28125-28.28125c3.136719-3.03125 8.128906-2.988281 11.214844.097656 3.085937 3.085938 3.128906 8.078125.097656 11.214844l-33.9375 33.9375c-1.5 1.5-3.535156 2.34375-5.65625 2.34375zm0 0"/><path d="m107.3125 376 11.3125-11.3125c2.078125-2.007812 2.914062-4.984375 2.179688-7.78125-.730469-2.796875-2.914063-4.980469-5.710938-5.710938-2.796875-.734374-5.773438.101563-7.78125 2.179688l-11.3125 11.3125-11.3125-11.3125c-2.007812-2.078125-4.984375-2.914062-7.78125-2.179688-2.796875.730469-4.980469 2.914063-5.710938 5.710938-.734374 2.796875.101563 5.773438 2.179688 7.78125l11.3125 11.3125-11.3125 11.3125c-2.078125 2.007812-2.914062 4.984375-2.179688 7.78125.730469 2.796875 2.914063 4.980469 5.710938 5.710938 2.796875.734374 5.773438-.101563 7.78125-2.179688l11.3125-11.3125 11.3125 11.3125c2.007812 2.078125 4.984375 2.914062 7.78125 2.179688 2.796875-.730469 4.980469-2.914063 5.710938-5.710938.734374-2.796875-.101563-5.773438-2.179688-7.78125zm0 0"/><path d="m328 56h-104c0-13.253906-10.746094-24-24-24v-8c0-13.253906-10.746094-24-24-24h-16c-13.253906 0-24 10.746094-24 24v8c-13.253906 0-24 10.746094-24 24h-104c-4.417969 0-8 3.582031-8 8v408c0 4.417969 3.582031 8 8 8h320c4.417969 0 8-3.582031 8-8v-408c0-4.417969-3.582031-8-8-8zm-211.566406 71.238281c2.722656 1.351563 5.972656 1.039063 8.390625-.796875 25.554687-19.289062 60.796875-19.289062 86.351562 0 .660157.480469 1.386719.863282 2.160157 1.125.25.089844.496093.113282.753906.175782.523437.140624 1.058594.226562 1.597656.257812.113281 0 .214844.054688.328125.054688s.230469-.078126.351563-.085938c1.109374-.023438 2.199218-.28125 3.199218-.753906 2.710938-1.347656 4.425782-4.109375 4.433594-7.136719v-16.078125h64v328h-240v-328h64v16.078125c0 3.035156 1.714844 5.808594 4.433594 7.160156zm35.566406-103.238281c0-4.417969 3.582031-8 8-8h16c4.417969 0 8 3.582031 8 8v8h-32zm-24 32c0-4.417969 3.582031-8 8-8h64c4.417969 0 8 3.582031 8 8v49.601562c-25.121094-12.84375-54.878906-12.84375-80 0zm192 408h-304v-392h96v16h-72c-4.417969 0-8 3.582031-8 8v344c0 4.417969 3.582031 8 8 8h256c4.417969 0 8-3.582031 8-8v-344c0-4.417969-3.582031-8-8-8h-72v-16h96zm0 0"/></g></svg>