<?xml version="1.0" encoding="iso-8859-1"?>
<!-- Generator: Adobe Illustrator 19.0.0, SVG Export Plug-In . SVG Version: 6.00 Build 0)  -->
<svg version="1.1" id="Capa_1" xmlns="http://www.w3.org/2000/svg" xmlns:xlink="http://www.w3.org/1999/xlink" x="0px" y="0px"
	 viewBox="0 0 511.653 511.653" style="enable-background:new 0 0 511.653 511.653;" xml:space="preserve">
<polygon style="fill:#D7E9FF;" points="479.673,395.731 479.673,403.726 487.668,427.71 471.679,451.693 455.689,427.71 
	463.684,403.726 463.684,395.731 "/>
<polygon style="fill:#FFFFFF;" points="471.679,435.704 459.241,417.054 455.689,427.71 471.679,451.693 487.668,427.71 
	484.115,417.054 "/>
<polygon style="fill:#94C1FF;" points="487.668,347.765 487.668,395.731 479.673,395.731 463.684,395.731 455.689,395.731 
	455.689,347.765 "/>
<rect x="455.687" y="331.777" style="fill:#D7E9FF;" width="31.979" height="15.989"/>
<path style="fill:#94C1FF;" d="M495.662,131.911l-7.994,199.864h-31.979l-7.995-199.864c0-17.667,6.316-31.978,23.984-31.978h0.796
	C489.511,100.409,495.662,114.485,495.662,131.911z"/>
<path style="fill:#D7E9FF;" d="M463.684,331.775l-7.995-199.864c0-16.208,5.434-29.448,19.955-31.549
	c-1.046-0.156-2.022-0.398-3.17-0.429h-0.796c-17.668,0-23.984,14.311-23.984,31.978l7.995,199.864v15.989v47.967h7.995v-47.967
	L463.684,331.775L463.684,331.775z"/>
<path style="fill:#5C9EFF;" d="M479.673,331.775l7.995-199.864c0-16.208-5.435-29.448-19.956-31.549
	c1.047-0.156,2.022-0.398,3.17-0.429h0.797c17.668,0,23.983,14.311,23.983,31.978l-7.994,199.864v15.989v47.967h-7.995v-47.967
	L479.673,331.775L479.673,331.775z"/>
<g>
	<rect x="463.687" y="395.727" style="fill:#94C1FF;" width="15.988" height="7.995"/>
	<rect x="15.987" y="3.998" style="fill:#94C1FF;" width="391.73" height="503.66"/>
</g>
<polygon style="fill:#FFFFFF;" points="343.765,483.672 39.973,483.672 39.973,27.982 383.738,27.982 383.738,443.699 "/>
<polygon style="fill:#D7E9FF;" points="288.974,3.998 134.409,3.998 155.894,35.976 267.825,35.976 "/>
<polygon style="fill:#FFFFFF;" points="134.409,3.998 155.894,35.976 163.889,35.976 142.403,3.998 "/>
<polygon style="fill:#94C1FF;" points="293.222,3.998 271.736,35.976 263.742,35.976 285.227,3.998 "/>
<rect x="15.987" y="3.998" style="fill:#D7E9FF;" width="7.995" height="503.66"/>
<rect x="399.727" y="3.998" style="fill:#5C9EFF;" width="7.994" height="503.66"/>
<g>
	<polygon style="fill:#94C1FF;" points="339.768,487.669 387.735,487.669 387.735,439.702 	"/>
	<polygon style="fill:#94C1FF;" points="267.825,35.976 155.894,35.976 139.78,11.993 134.409,11.993 155.894,43.971 
		267.825,43.971 288.974,11.993 283.681,11.993 	"/>
</g>
<g>
	<path style="fill:#D7E9FF;" d="M131.91,255.827c0,13.248-10.735,23.983-23.984,23.983s-23.983-10.735-23.983-23.983
		c0-13.249,10.735-23.984,23.984-23.984S131.91,242.578,131.91,255.827z"/>
	<path style="fill:#D7E9FF;" d="M131.91,147.9c0,13.249-10.735,23.983-23.984,23.983S83.942,161.149,83.942,147.9
		s10.736-23.983,23.985-23.983S131.91,134.651,131.91,147.9z"/>
	<path style="fill:#D7E9FF;" d="M131.91,371.748c0,13.249-10.735,23.983-23.984,23.983s-23.984-10.734-23.984-23.983
		s10.735-23.983,23.984-23.983S131.91,358.499,131.91,371.748z"/>
</g>
<rect x="455.687" y="331.777" style="fill:#FFFFFF;" width="7.995" height="15.989"/>
<rect x="479.677" y="331.777" style="fill:#94C1FF;" width="7.995" height="15.989"/>
<g>
	<path style="fill:#116FFF;" d="M271.83,39.973H151.897c-1.335,0-2.584-0.671-3.326-1.78l-15.989-23.984
		c-1.226-1.834-0.726-4.317,1.109-5.543c1.819-1.218,4.31-0.733,5.543,1.108l14.802,22.204h115.656l14.785-22.203
		c1.227-1.842,3.725-2.326,5.543-1.108c1.835,1.226,2.335,3.701,1.109,5.543l-15.974,23.984
		C274.414,39.303,273.165,39.973,271.83,39.973z"/>
	<path style="fill:#116FFF;" d="M127.913,31.979h-87.94c-2.21,0-3.998-1.788-3.998-3.997c0-2.21,1.788-3.998,3.998-3.998h87.94
		c2.209,0,3.998,1.788,3.998,3.998C131.91,30.191,130.122,31.979,127.913,31.979z"/>
	<path style="fill:#116FFF;" d="M383.738,31.979h-87.94c-2.209,0-3.997-1.788-3.997-3.997c0-2.21,1.788-3.998,3.997-3.998h87.94
		c2.21,0,3.997,1.788,3.997,3.998C387.735,30.191,385.948,31.979,383.738,31.979z"/>
	<path style="fill:#116FFF;" d="M239.837,23.985H175.88c-2.209,0-3.997-1.788-3.997-3.998c0-2.209,1.788-3.997,3.997-3.997h63.957
		c2.209,0,3.998,1.788,3.998,3.997C243.834,22.197,242.046,23.985,239.837,23.985z"/>
	<path style="fill:#116FFF;" d="M367.749,439.702H335.77c-2.209,0-3.997-1.788-3.997-3.998c0-2.209,1.788-3.997,3.997-3.997h31.979
		c2.21,0,3.998,1.788,3.998,3.997C371.747,437.914,369.959,439.702,367.749,439.702z"/>
	<path style="fill:#116FFF;" d="M335.77,471.68c-2.209,0-3.997-1.788-3.997-3.997v-31.979c0-2.209,1.788-3.997,3.997-3.997
		c2.21,0,3.998,1.788,3.998,3.997v31.979C339.768,469.891,337.98,471.68,335.77,471.68z"/>
	<path style="fill:#116FFF;" d="M39.973,487.669c-2.21,0-3.998-1.787-3.998-3.997V27.982c0-2.21,1.788-3.998,3.998-3.998
		c2.209,0,3.997,1.788,3.997,3.998v455.689C43.97,485.882,42.182,487.669,39.973,487.669z"/>
	<path style="fill:#116FFF;" d="M383.738,447.696c-2.209,0-3.997-1.788-3.997-3.997V27.982c0-2.21,1.788-3.998,3.997-3.998
		c2.21,0,3.997,1.788,3.997,3.998v415.717C387.735,445.908,385.948,447.696,383.738,447.696z"/>
	<path style="fill:#116FFF;" d="M343.765,487.669c-1.022,0-2.046-0.391-2.826-1.171c-1.562-1.562-1.562-4.091,0-5.652l39.973-39.973
		c1.562-1.562,4.091-1.562,5.652,0s1.562,4.091,0,5.652l-39.973,39.973C345.811,487.278,344.788,487.669,343.765,487.669z"/>
	<path style="fill:#116FFF;" d="M343.765,487.669H39.973c-2.21,0-3.998-1.787-3.998-3.997s1.788-3.997,3.998-3.997h303.792
		c2.21,0,3.997,1.787,3.997,3.997S345.975,487.669,343.765,487.669z"/>
	<path style="fill:#116FFF;" d="M407.722,511.653c-2.209,0-3.997-1.788-3.997-3.998V3.998c0-2.209,1.788-3.998,3.997-3.998
		c2.21,0,3.998,1.788,3.998,3.998v503.657C411.72,509.865,409.931,511.653,407.722,511.653z"/>
	<path style="fill:#116FFF;" d="M407.722,511.653H15.989c-2.209,0-3.998-1.788-3.998-3.998c0-2.209,1.788-3.997,3.998-3.997h391.732
		c2.21,0,3.998,1.788,3.998,3.997C411.72,509.865,409.931,511.653,407.722,511.653z"/>
	<path style="fill:#116FFF;" d="M15.989,511.653c-2.209,0-3.998-1.788-3.998-3.998V3.998C11.991,1.789,13.779,0,15.989,0
		s3.998,1.788,3.998,3.998v503.657C19.987,509.865,18.199,511.653,15.989,511.653z"/>
	<path style="fill:#116FFF;" d="M407.722,7.995H15.989c-2.209,0-3.998-1.788-3.998-3.997S13.779,0,15.989,0h391.732
		c2.21,0,3.998,1.788,3.998,3.998S409.931,7.995,407.722,7.995z"/>
	<path style="fill:#116FFF;" d="M471.679,455.698c-1.288,0-2.553-0.624-3.326-1.779l-15.989-23.984
		c-0.687-1.022-0.858-2.311-0.468-3.481l7.791-23.367v-7.347c0-2.209,1.788-3.997,3.998-3.997c2.209,0,3.996,1.788,3.996,3.997
		v7.995c0,0.429-0.069,0.858-0.202,1.265l-7.378,22.125l14.904,22.36c1.226,1.835,0.726,4.317-1.109,5.543
		C473.217,455.479,472.443,455.698,471.679,455.698z"/>
	<path style="fill:#116FFF;" d="M471.679,455.698c-0.766,0-1.538-0.219-2.218-0.671c-1.834-1.226-2.334-3.708-1.108-5.543
		l14.904-22.36l-7.378-22.125c-0.133-0.406-0.203-0.836-0.203-1.265v-7.995c0-2.209,1.788-3.997,3.997-3.997
		c2.21,0,3.998,1.788,3.998,3.997v7.347l7.791,23.367c0.391,1.171,0.219,2.459-0.469,3.481l-15.988,23.984
		C474.231,455.074,472.967,455.698,471.679,455.698z"/>
	<path style="fill:#116FFF;" d="M487.668,335.78h-31.979c-2.21,0-3.997-1.788-3.997-3.997c0-2.21,1.787-3.997,3.997-3.997h31.979
		c2.209,0,3.997,1.787,3.997,3.997C491.665,333.992,489.877,335.78,487.668,335.78z"/>
	<path style="fill:#116FFF;" d="M455.689,335.78c-2.14,0-3.911-1.687-3.997-3.841l-7.995-199.872
		c-0.085-2.201,1.632-4.06,3.842-4.153c2.318,0.156,4.067,1.632,4.153,3.841l7.994,199.872c0.086,2.202-1.632,4.06-3.841,4.153
		C455.799,335.78,455.744,335.78,455.689,335.78z"/>
	<path style="fill:#116FFF;" d="M487.668,335.78c-0.055,0-0.102,0-0.156,0c-2.21-0.094-3.927-1.951-3.841-4.153l7.994-199.872
		c0.094-2.209,2.084-3.661,4.153-3.841c2.21,0.094,3.927,1.952,3.841,4.153l-7.994,199.872
		C491.579,334.094,489.806,335.78,487.668,335.78z"/>
	<path style="fill:#116FFF;" d="M495.662,135.909c-2.209,0-3.997-1.788-3.997-3.998c0-18.565-6.723-27.98-19.986-27.98
		c-13.265,0-19.986,9.415-19.986,27.98c0,2.21-1.788,3.998-3.998,3.998c-2.209,0-3.997-1.788-3.997-3.998
		c0-22.859,10.196-35.976,27.981-35.976s27.98,13.116,27.98,35.976C499.659,134.121,497.872,135.909,495.662,135.909z"/>
	<path style="fill:#116FFF;" d="M479.673,103.931h-15.988c-2.21,0-3.998-1.788-3.998-3.998s1.788-3.998,3.998-3.998h15.988
		c2.21,0,3.998,1.788,3.998,3.998S481.883,103.931,479.673,103.931z"/>
	<path style="fill:#116FFF;" d="M471.679,239.838c-2.21,0-3.998-1.788-3.998-3.997V115.922c0-2.209,1.788-3.997,3.998-3.997
		c2.209,0,3.997,1.788,3.997,3.997v119.919C475.676,238.05,473.888,239.838,471.679,239.838z"/>
	<path style="fill:#116FFF;" d="M487.668,351.769h-31.979c-2.21,0-3.997-1.788-3.997-3.997c0-2.21,1.787-3.998,3.997-3.998h31.979
		c2.209,0,3.997,1.788,3.997,3.998C491.665,349.981,489.877,351.769,487.668,351.769z"/>
	<path style="fill:#116FFF;" d="M487.668,351.769c-2.21,0-3.997-1.788-3.997-3.997v-15.989c0-2.21,1.787-3.997,3.997-3.997
		c2.209,0,3.997,1.787,3.997,3.997v15.989C491.665,349.981,489.877,351.769,487.668,351.769z"/>
	<path style="fill:#116FFF;" d="M455.689,351.769c-2.21,0-3.997-1.788-3.997-3.997v-15.989c0-2.21,1.787-3.997,3.997-3.997
		s3.997,1.787,3.997,3.997v15.989C459.686,349.981,457.899,351.769,455.689,351.769z"/>
	<path style="fill:#116FFF;" d="M487.668,399.737h-31.979c-2.21,0-3.997-1.788-3.997-3.998c0-2.209,1.787-3.997,3.997-3.997h31.979
		c2.209,0,3.997,1.788,3.997,3.997C491.665,397.949,489.877,399.737,487.668,399.737z"/>
	<path style="fill:#116FFF;" d="M487.668,399.737c-2.21,0-3.997-1.788-3.997-3.998v-47.967c0-2.21,1.787-3.998,3.997-3.998
		c2.209,0,3.997,1.788,3.997,3.998v47.967C491.665,397.949,489.877,399.737,487.668,399.737z"/>
	<path style="fill:#116FFF;" d="M455.689,399.737c-2.21,0-3.997-1.788-3.997-3.998v-47.967c0-2.21,1.787-3.998,3.997-3.998
		s3.997,1.788,3.997,3.998v47.967C459.686,397.949,457.899,399.737,455.689,399.737z"/>
	<path style="fill:#116FFF;" d="M103.929,159.892c-1.022,0-2.045-0.391-2.826-1.171l-15.989-15.989
		c-1.561-1.562-1.561-4.091,0-5.653c1.562-1.561,4.091-1.561,5.653,0l15.989,15.989c1.562,1.561,1.562,4.091,0,5.652
		C105.975,159.502,104.952,159.892,103.929,159.892z"/>
	<path style="fill:#116FFF;" d="M103.929,159.892c-1.022,0-2.045-0.391-2.826-1.171c-1.562-1.562-1.562-4.091,0-5.652l31.979-31.978
		c1.562-1.562,4.091-1.562,5.652,0s1.562,4.091,0,5.652l-31.979,31.978C105.975,159.502,104.952,159.892,103.929,159.892z"/>
	<path style="fill:#116FFF;" d="M335.77,119.919H175.88c-2.209,0-3.997-1.788-3.997-3.998c0-2.209,1.788-3.997,3.997-3.997h159.89
		c2.21,0,3.998,1.788,3.998,3.997C339.768,118.132,337.98,119.919,335.77,119.919z"/>
	<path style="fill:#116FFF;" d="M335.77,143.903H175.88c-2.209,0-3.997-1.788-3.997-3.997c0-2.21,1.788-3.998,3.997-3.998h159.89
		c2.21,0,3.998,1.788,3.998,3.998C339.768,142.115,337.98,143.903,335.77,143.903z"/>
	<path style="fill:#116FFF;" d="M255.826,167.887h-79.945c-2.209,0-3.997-1.788-3.997-3.997s1.788-3.997,3.997-3.997h79.945
		c2.209,0,3.998,1.788,3.998,3.997S258.035,167.887,255.826,167.887z"/>
	<path style="fill:#116FFF;" d="M87.94,279.81c-1.022,0-2.045-0.391-2.826-1.171c-1.561-1.562-1.561-4.091,0-5.652l39.973-39.973
		c1.562-1.562,4.091-1.562,5.652,0s1.562,4.091,0,5.652l-39.973,39.973C89.986,279.42,88.963,279.81,87.94,279.81z"/>
	<path style="fill:#116FFF;" d="M127.913,279.81c-1.023,0-2.045-0.391-2.826-1.171l-39.973-39.972c-1.561-1.562-1.561-4.091,0-5.652
		c1.562-1.562,4.091-1.562,5.653,0l39.973,39.973c1.562,1.562,1.562,4.091,0,5.652C129.958,279.42,128.936,279.81,127.913,279.81z"
		/>
	<path style="fill:#116FFF;" d="M335.77,231.843H175.88c-2.209,0-3.997-1.788-3.997-3.998c0-2.209,1.788-3.997,3.997-3.997h159.89
		c2.21,0,3.998,1.788,3.998,3.997C339.768,230.056,337.98,231.843,335.77,231.843z"/>
	<path style="fill:#116FFF;" d="M335.77,255.827H175.88c-2.209,0-3.997-1.788-3.997-3.998s1.788-3.997,3.997-3.997h159.89
		c2.21,0,3.998,1.788,3.998,3.997S337.98,255.827,335.77,255.827z"/>
	<path style="fill:#116FFF;" d="M255.826,279.81h-79.945c-2.209,0-3.997-1.788-3.997-3.997s1.788-3.997,3.997-3.997h79.945
		c2.209,0,3.998,1.788,3.998,3.997S258.035,279.81,255.826,279.81z"/>
	<path style="fill:#116FFF;" d="M103.929,383.739c-1.022,0-2.045-0.39-2.826-1.17l-15.989-15.99c-1.561-1.561-1.561-4.09,0-5.652
		c1.562-1.561,4.091-1.561,5.653,0l15.989,15.99c1.562,1.561,1.562,4.09,0,5.652C105.975,383.349,104.952,383.739,103.929,383.739z"
		/>
	<path style="fill:#116FFF;" d="M103.929,383.739c-1.022,0-2.045-0.39-2.826-1.17c-1.562-1.562-1.562-4.092,0-5.652l31.979-31.979
		c1.562-1.562,4.091-1.562,5.652,0c1.562,1.561,1.562,4.091,0,5.652l-31.979,31.979
		C105.975,383.349,104.952,383.739,103.929,383.739z"/>
	<path style="fill:#116FFF;" d="M335.77,343.766H175.88c-2.209,0-3.997-1.787-3.997-3.997c0-2.209,1.788-3.997,3.997-3.997h159.89
		c2.21,0,3.998,1.788,3.998,3.997C339.768,341.979,337.98,343.766,335.77,343.766z"/>
	<path style="fill:#116FFF;" d="M335.77,367.751H175.88c-2.209,0-3.997-1.788-3.997-3.998c0-2.209,1.788-3.997,3.997-3.997h159.89
		c2.21,0,3.998,1.788,3.998,3.997C339.768,365.963,337.98,367.751,335.77,367.751z"/>
	<path style="fill:#116FFF;" d="M255.826,391.734h-79.945c-2.209,0-3.997-1.788-3.997-3.997s1.788-3.998,3.997-3.998h79.945
		c2.209,0,3.998,1.789,3.998,3.998S258.035,391.734,255.826,391.734z"/>
</g>
<g>
</g>
<g>
</g>
<g>
</g>
<g>
</g>
<g>
</g>
<g>
</g>
<g>
</g>
<g>
</g>
<g>
</g>
<g>
</g>
<g>
</g>
<g>
</g>
<g>
</g>
<g>
</g>
<g>
</g>
</svg>
