<svg height="480pt" viewBox="-56 0 480 480" width="480pt" xmlns="http://www.w3.org/2000/svg"><path d="m24 472h320c8.835938 0 16-7.164062 16-16v-432c0-8.835938-7.164062-16-16-16h-88v32h64c4.417969 0 8 3.582031 8 8v384c0 4.417969-3.582031 8-8 8h-272c-4.417969 0-8-3.582031-8-8v-384c0-4.417969 3.582031-8 8-8h64v-32h-88c-8.835938 0-16 7.164062-16 16v432c0 8.835938 7.164062 16 16 16zm0 0" fill="#bddbff"/><path d="m112 56h144v-48h-144zm0 0" fill="#bddbff"/><path d="m88 104v64h64v-64zm0 0" fill="#bddbff"/><path d="m88 392h64v-64h-64zm0 0" fill="#bddbff"/><path d="m88 280h64v-64h-64zm0 0" fill="#bddbff"/><g fill="#3d9ae2"><path d="m344 0h-320c-13.253906 0-24 10.746094-24 24v432c0 13.253906 10.746094 24 24 24h320c13.253906 0 24-10.746094 24-24v-432c0-13.253906-10.746094-24-24-24zm-232 64h144c4.417969 0 8-3.582031 8-8v-8h56v384h-272v-384h56v8c0 4.417969 3.582031 8 8 8zm136-48v32h-128v-32zm104 440c0 4.417969-3.582031 8-8 8h-320c-4.417969 0-8-3.582031-8-8v-432c0-4.417969 3.582031-8 8-8h80v16h-56c-8.835938 0-16 7.164062-16 16v384c0 8.835938 7.164062 16 16 16h272c8.835938 0 16-7.164062 16-16v-384c0-8.835938-7.164062-16-16-16h-56v-16h80c4.417969 0 8 3.582031 8 8zm0 0"/><path d="m80 104v64c0 4.417969 3.582031 8 8 8h64c4.417969 0 8-3.582031 8-8v-44.6875l13.65625-13.65625c3.03125-3.140625 2.988281-8.128906-.097656-11.214844-3.085938-3.085937-8.074219-3.128906-11.214844-.097656l-2.894531 2.894531c-1.152344-3.125-4.117188-5.214843-7.449219-5.238281h-64c-4.417969 0-8 3.582031-8 8zm16 8h48v4.6875l-16 16-10.34375-10.34375c-3.140625-3.03125-8.128906-2.988281-11.214844.097656-3.085937 3.085938-3.128906 8.074219-.097656 11.214844l16 16c3.125 3.121094 8.1875 3.121094 11.3125 0l10.34375-10.34375v20.6875h-48zm0 0"/><path d="m162.34375 210.34375-2.894531 2.894531c-1.152344-3.125-4.117188-5.214843-7.449219-5.238281h-64c-4.417969 0-8 3.582031-8 8v64c0 4.417969 3.582031 8 8 8h64c4.417969 0 8-3.582031 8-8v-44.6875l13.65625-13.65625c3.03125-3.140625 2.988281-8.128906-.097656-11.214844-3.085938-3.085937-8.074219-3.128906-11.214844-.097656zm-18.34375 61.65625h-48v-48h48v4.6875l-16 16-10.34375-10.34375c-3.140625-3.03125-8.128906-2.988281-11.214844.097656-3.085937 3.085938-3.128906 8.074219-.097656 11.214844l16 16c3.125 3.121094 8.1875 3.121094 11.3125 0l10.34375-10.34375zm0 0"/><path d="m162.34375 322.34375-2.894531 2.894531c-1.152344-3.125-4.117188-5.214843-7.449219-5.238281h-64c-4.417969 0-8 3.582031-8 8v64c0 4.417969 3.582031 8 8 8h64c4.417969 0 8-3.582031 8-8v-44.6875l13.65625-13.65625c3.03125-3.140625 2.988281-8.128906-.097656-11.214844-3.085938-3.085937-8.074219-3.128906-11.214844-.097656zm-18.34375 61.65625h-48v-48h48v4.6875l-16 16-10.34375-10.34375c-3.140625-3.03125-8.128906-2.988281-11.214844.097656-3.085937 3.085938-3.128906 8.074219-.097656 11.214844l16 16c3.125 3.121094 8.1875 3.121094 11.3125 0l10.34375-10.34375zm0 0"/><path d="m200 176h80c4.417969 0 8-3.582031 8-8s-3.582031-8-8-8h-80c-4.417969 0-8 3.582031-8 8s3.582031 8 8 8zm0 0"/><path d="m200 144h64c4.417969 0 8-3.582031 8-8s-3.582031-8-8-8h-64c-4.417969 0-8 3.582031-8 8s3.582031 8 8 8zm0 0"/><path d="m200 288h80c4.417969 0 8-3.582031 8-8s-3.582031-8-8-8h-80c-4.417969 0-8 3.582031-8 8s3.582031 8 8 8zm0 0"/><path d="m200 256h64c4.417969 0 8-3.582031 8-8s-3.582031-8-8-8h-64c-4.417969 0-8 3.582031-8 8s3.582031 8 8 8zm0 0"/><path d="m200 400h80c4.417969 0 8-3.582031 8-8s-3.582031-8-8-8h-80c-4.417969 0-8 3.582031-8 8s3.582031 8 8 8zm0 0"/><path d="m200 368h64c4.417969 0 8-3.582031 8-8s-3.582031-8-8-8h-64c-4.417969 0-8 3.582031-8 8s3.582031 8 8 8zm0 0"/></g></svg>