<?xml version="1.0"?>
<svg xmlns="http://www.w3.org/2000/svg" viewBox="0 0 64 64" width="512" height="512"><g id="Operator"><path d="M18,61H7a11.7,11.7,0,0,1,8.95-11.35L22.6,47.9,32,59v2Z" style="fill:#bddbff"/><path d="M46,61H32V59l9.4-11.1,6.65,1.75A11.7,11.7,0,0,1,57,61Z" style="fill:#bddbff"/><path d="M33,36a2.006,2.006,0,0,1,2,2,2.015,2.015,0,0,1-2,2H31a2.006,2.006,0,0,1-2-2,2.015,2.015,0,0,1,2-2Z" style="fill:#bddbff"/><path d="M49,23a2.006,2.006,0,0,1,2,2v6a2.006,2.006,0,0,1-2,2H45V25.32a2,2,0,0,0,1.68-1.36l.3-.9c.01-.02.01-.04.02-.06Z" style="fill:#bddbff"/><path d="M19,31v2H15a2.006,2.006,0,0,1-2-2V25a2.006,2.006,0,0,1,2-2h2c.01.02.01.04.02.06l.3.9A2,2,0,0,0,19,25.32Z" style="fill:#bddbff"/><path d="M20.72,9.17l3,8.99c-1.67.34-3.27.71-4.57,1.03a2.892,2.892,0,0,0-1.15.57v-6.8A4,4,0,0,1,20.72,9.17Z" style="fill:#bddbff"/><path d="M43.09,9.18l-3.67,8.8A43.244,43.244,0,0,0,32,17a46.741,46.741,0,0,0-8.28,1.16l-3-8.99c.05-.02.11-.03.16-.05C23.95,8.23,28.8,7,32,7c2.61,0,7.77,1.28,11.05,2.17C43.06,9.17,43.08,9.18,43.09,9.18Z" style="fill:#bddbff"/><path d="M46,13.03v6.73a2.892,2.892,0,0,0-1.15-.57c-1.53-.38-3.46-.82-5.43-1.21l3.67-8.8A3.987,3.987,0,0,1,46,13.03Z" style="fill:#bddbff"/><path d="M46,19.76A2.994,2.994,0,0,1,47,23c-.01.02-.01.04-.02.06l-.3.9a1.979,1.979,0,0,1-2.64,1.22C41.1,24.01,35.55,21,32,21s-9.1,3.01-12.04,4.18a1.979,1.979,0,0,1-2.64-1.22l-.3-.9c-.01-.02-.01-.04-.02-.06a2.994,2.994,0,0,1,1-3.24,2.892,2.892,0,0,1,1.15-.57c1.3-.32,2.9-.69,4.57-1.03A46.741,46.741,0,0,1,32,17a43.244,43.244,0,0,1,7.42.98c1.97.39,3.9.83,5.43,1.21A2.892,2.892,0,0,1,46,19.76Z" style="fill:#bddbff"/><path d="M48.305,48.684,39,46.229V43.114A13.959,13.959,0,0,0,43.5,39H44a5.006,5.006,0,0,0,5-5,3,3,0,0,0,3-3V25a3,3,0,0,0-2-2.816V15A13.015,13.015,0,0,0,37,2H27A13.015,13.015,0,0,0,14,15v7.184A3,3,0,0,0,12,25v6a3,3,0,0,0,3,3h3.331A13.922,13.922,0,0,0,25,43.112v3.117l-9.3,2.454A12.671,12.671,0,0,0,6,61a1,1,0,0,0,1,1H57a1,1,0,0,0,1-1A12.669,12.669,0,0,0,48.305,48.684ZM27,44.07a13.906,13.906,0,0,0,10,0v2.56l-5,5.834L27,46.63ZM45,18.2c-1.294-.315-2.73-.645-4.191-.954l2.81-6.739A3,3,0,0,1,45,13.03Zm-6.19-1.357A40.243,40.243,0,0,0,32,16a43.591,43.591,0,0,0-7.612,1L22,9.843A44.154,44.154,0,0,1,32,8a47.846,47.846,0,0,1,9.725,1.855ZM20.147,10.611l2.269,6.8c-1.192.26-2.351.53-3.416.79V12.96A3,3,0,0,1,20.147,10.611Zm-.554,13.642a1,1,0,0,1-.8-.021.986.986,0,0,1-.525-.589l-.3-.9a2,2,0,0,1,1.424-2.575C22.7,19.356,28.746,18,32,18s9.3,1.356,12.608,2.165a2,2,0,0,1,1.424,2.575l-.3.9a1,1,0,0,1-1.324.61c-.685-.274-1.516-.649-2.432-1.064C38.832,21.769,34.919,20,32,20s-6.832,1.769-9.975,3.189C21.109,23.6,20.278,23.979,19.593,24.253Zm25.1,12.659A13.89,13.89,0,0,0,45.675,34H47A3,3,0,0,1,44.691,36.912ZM50,31a1,1,0,0,1-1,1H46V26.062c.016-.007.032-.009.048-.016a3.009,3.009,0,0,0,1.581-1.771L47.721,24H49a1,1,0,0,1,1,1ZM27,4H37A11.013,11.013,0,0,1,48,15v6.143a3.562,3.562,0,0,0-1-1.8V13.03a5,5,0,0,0-3.688-4.825C39.6,7.2,34.631,6,32,6c-3.261,0-8,1.175-11.4,2.159a5.009,5.009,0,0,0-3.6,4.8v6.381a3.562,3.562,0,0,0-1,1.8V15A11.013,11.013,0,0,1,27,4ZM18,32H15a1,1,0,0,1-1-1V25a1,1,0,0,1,1-1h1.279l.092.275a3.009,3.009,0,0,0,1.581,1.771c.016.007.032.009.048.016V32Zm2-1V26.208a2.777,2.777,0,0,0,.334-.1c.709-.282,1.568-.671,2.515-1.1C25.661,23.741,29.512,22,32,22s6.339,1.741,9.151,3.012c.947.427,1.806.816,2.514,1.1a2.832,2.832,0,0,0,.335.095V31a11.982,11.982,0,0,1-1.606,6H35.816A3,3,0,0,0,33,35H31a3,3,0,0,0,0,6h2a3,3,0,0,0,2.816-2h5.128A12,12,0,0,1,20,31Zm14,7a1,1,0,0,1-1,1H31a1,1,0,0,1,0-2h2A1,1,0,0,1,34,38ZM25.649,48.127l5.592,6.523a1,1,0,0,0,1.518,0l5.592-6.523,1.264.333L32,57.452,24.385,48.46ZM47,60V56H45v4H19V56H17v4H8.046A10.718,10.718,0,0,1,16.2,50.617l6.037-1.592,8.995,10.621a1,1,0,0,0,1.526,0l9-10.621L47.8,50.618A10.716,10.716,0,0,1,55.954,60Z" style="fill:#3d9ae2"/><path d="M32,34a3,3,0,0,0,3-3V27H33v4a1,1,0,0,1-2,0V27H29v4A3,3,0,0,0,32,34Z" style="fill:#3d9ae2"/><circle cx="26" cy="27" r="1" style="fill:#3d9ae2"/><circle cx="38" cy="27" r="1" style="fill:#3d9ae2"/></g></svg>
